<svg xmlns="http://www.w3.org/2000/svg" viewBox="0 0 281.4 78.9">
  <style>
    .blue{fill:#4772F6;}
    .white{fill:#f2f2f2;}
  </style>
  <g>
    <path class="blue" d="M102.8 0h.7c9.9 0 17.9 8 17.9 17.9v42.8c0 10.1-8.1 18.2-18.2 18.2S85 70.8 85 60.7V17.9C84.9 8 92.9 0 102.8 0z"/>
	<path class="white" d="M91 60.7c0 6.7 5.4 12.1 12.1 12.1h.9c6.2 0 11.2-5.4 11.2-12.1s-5-12.1-11.2-12.1h-.9C96.4 48.5 91 54 91 60.7z"/>
    <path class="blue" d="M18.2 0c10.1 0 18.2 8.1 18.2 18.2v42.5c0 10.1-8.1 18.2-18.2 18.2S0 70.7 0 60.7V18.2C0 8.1 8.1 0 18.2 0zM60.7 0c10.1 0 18.2 8.1 18.2 18.2v42.5c0 10.1-8.1 18.2-18.2 18.2s-18.2-8.1-18.2-18.2V18.2C42.5 8.1 50.6 0 60.7 0zM192.8 36.7c-1.6 0-3.2-.3-4.8-.9-1.4-.6-2.7-1.4-3.8-2.5-1.1-1.1-1.9-2.3-2.5-3.7-.6-1.4-.9-3-.9-4.5V25c0-1.6.3-3.1.9-4.6 1.9-4.4 6.3-7.3 11.1-7.2 1.6 0 3.3.3 4.8.9 2.8 1.1 5.1 3.4 6.3 6.2.6 1.4.9 3 .9 4.6v.1c0 1.6-.3 3.1-.9 4.5-.6 1.4-1.4 2.7-2.5 3.7-1.1 1.1-2.4 1.9-3.8 2.5-1.5.7-3.2 1-4.8 1zm.1-4.5c1 0 1.9-.2 2.8-.6.8-.4 1.5-.9 2.1-1.5.6-.7 1.1-1.4 1.4-2.3.3-.9.5-1.8.5-2.8 0-1-.2-1.9-.5-2.8-.3-.9-.8-1.6-1.4-2.3-.6-.7-1.3-1.2-2.2-1.5-1.8-.8-3.8-.8-5.6 0-.8.4-1.5.9-2.1 1.5-.6.7-1.1 1.4-1.4 2.3-.3.9-.5 1.8-.5 2.8 0 1 .2 1.9.5 2.8.3.8.8 1.6 1.4 2.3.6.7 1.3 1.2 2.2 1.6.9.4 1.8.5 2.8.5zM245.4 36.7c-1.6 0-3.1-.3-4.5-.8s-2.6-1.4-3.7-2.4c-1.1-1.1-1.9-2.3-2.4-3.7-.6-1.5-.9-3.1-.9-4.8 0-1.6.3-3.1.8-4.6.5-1.4 1.3-2.7 2.3-3.7 1-1.1 2.2-1.9 3.5-2.5 1.4-.6 2.9-.9 4.4-.9 1.6 0 3.2.3 4.7 1 1.3.6 2.5 1.5 3.4 2.6.9 1.2 1.6 2.5 2 3.9.5 1.5.7 3.1.7 4.6v.7c0 .2 0 .5-.1.8H239c.3 3.3 3.1 5.8 6.5 5.7 1.1 0 2.3-.2 3.3-.7 1-.5 2-1.2 2.8-2l3 2.7c-1.1 1.3-2.4 2.3-3.9 3.1-1.6.7-3.5 1.1-5.3 1zm5.1-13.3c-.1-.8-.2-1.6-.5-2.4-.3-.7-.7-1.3-1.2-1.9-1-1.1-2.5-1.8-4-1.7-1.5 0-2.9.6-3.9 1.6-1.1 1.2-1.8 2.7-1.9 4.3l11.5.1zM265 43.2c-1 0-1.9-.1-2.9-.4-.9-.2-1.7-.6-2.5-1l1.8-3.8c.5.2 1 .5 1.5.6.5.2 1 .2 1.6.2.7 0 1.3-.2 1.8-.5.6-.5 1.1-1.2 1.4-2l-9.4-22.5h5.5l6.4 16.7 5.9-16.8h5.4l-9 23.2c-.4 1-.8 2-1.4 2.9-.4.7-1 1.4-1.6 2-.6.5-1.3.9-2 1.1-.9.1-1.7.3-2.5.3zM203.6 76c-.9 0-1.8-.1-2.6-.3-.8-.2-1.5-.6-2.1-1.1-.6-.5-1.1-1.2-1.4-2-.3-1-.5-2.1-.5-3.1v-12h-2.9v-4.4h2.9v-6.2h5.2v6.2h6.1v4.4h-6.1v11c-.1.8.2 1.6.7 2.2.6.5 1.3.7 2.1.7 1.1 0 2.2-.3 3.2-.8v4.2c-.7.4-1.4.7-2.1.8-.8.3-1.6.4-2.5.4zM221.5 76c-.9 0-1.8-.1-2.6-.3-.8-.2-1.5-.6-2.1-1.1-.6-.5-1.1-1.2-1.4-2-.3-1-.5-2.1-.5-3.1v-12H212v-4.4h2.9v-6.2h5.2v6.2h6.1v4.4h-6.1v11c-.1.8.2 1.6.7 2.2.6.5 1.3.7 2 .7 1.1 0 2.2-.3 3.2-.8v4.2c-.7.4-1.4.7-2.1.8-.7.3-1.6.4-2.4.4zM241.3 76.2c-1.6 0-3.3-.3-4.8-.9-1.4-.6-2.7-1.4-3.8-2.5-1.1-1.1-1.9-2.3-2.5-3.7-.6-1.4-.9-3-.9-4.5v-.1c0-1.6.3-3.1.9-4.6.6-1.4 1.4-2.7 2.5-3.7 1.1-1.1 2.4-1.9 3.8-2.5 1.5-.6 3.2-1 4.8-.9 1.6 0 3.3.3 4.8.9 4.4 1.8 7.2 6 7.2 10.8v.1c0 1.6-.3 3.1-.9 4.5-.6 1.4-1.4 2.7-2.5 3.7-1.1 1.1-2.4 1.9-3.8 2.5-1.5.5-3.2.9-4.8.9zm.1-4.5c1.9 0 3.7-.7 5-2.1.6-.7 1.1-1.4 1.4-2.3.3-.9.5-1.8.5-2.8v-.1c0-1-.2-1.9-.5-2.8-.3-.9-.8-1.6-1.4-2.3-.6-.7-1.4-1.2-2.2-1.5-1.8-.8-3.8-.8-5.6 0-.8.4-1.5.9-2.1 1.5-.6.7-1 1.4-1.3 2.3-.3.9-.5 1.8-.5 2.8v.1c0 1 .2 1.9.5 2.8.3.9.8 1.6 1.4 2.3.6.7 1.3 1.2 2.2 1.6.7.3 1.6.5 2.6.5zM277 75.6h-5.1V63.1c.2-2.6-1.8-4.8-4.4-5-2.6-.2-4.8 1.8-5 4.4v13.1h-5.2V63.1c-.2-5.4 4.1-10 9.5-10.2 5.4-.2 10 4.1 10.2 9.5v13.2zM179.7 76.3c-5.5-.1-9.9-4.6-9.9-10.1V53.7h5.2v12.5c-.2 2.6 1.8 4.8 4.4 5 2.6.2 4.8-1.8 5-4.4V53.7h5.2v12.5c.1 5.4-4.3 10-9.9 10.1zM229.2 36.2H224V23.7c.2-2.6-1.8-4.8-4.4-5-2.6-.2-4.8 1.8-5 4.4v13.1h-5.2V23.7c0-5.4 4.4-9.9 9.9-9.9s9.9 4.4 9.9 9.9v12.5zM166.9 13.6c-2.8 0-5.5 1.2-7.3 3.4-1.8-2.1-4.5-3.4-7.3-3.4-5.5.1-9.9 4.6-9.9 10.1v12.5h5.2V23.7c-.2-2.6 1.8-4.8 4.4-5 2.6-.2 4.8 1.8 5 4.4v13.1h5.1V23.7c-.1-2.6 1.9-4.8 4.5-4.9 2.6-.1 4.8 1.9 4.9 4.5v12.9h5.1V23.7c.3-5.5-4.1-10-9.7-10.1zM165.2 59.8c-1.2-2.8-3.4-5.1-6.2-6.2-1.5-.6-3.1-.9-4.8-.9-1.6 0-3.3.3-4.8.9-.7.3-1.4.7-2 1.1V44.5h-5.1V63h.1c-.1.5-.1.9-.1 1.4v.1c0 1.5.3 3.1.8 4.5.6 1.4 1.4 2.7 2.5 3.7 1.1 1.1 2.4 1.9 3.8 2.5 1.5.6 3.1.9 4.8.9 1.7 0 3.3-.3 4.8-.9 1.4-.6 2.7-1.5 3.8-2.5 1.1-1.1 1.9-2.3 2.5-3.7.6-1.4.9-3 .9-4.5v-.1c-.1-1.6-.4-3.2-1-4.6zm-4.3 4.7c0 .9-.1 1.9-.5 2.8-.3.8-.8 1.6-1.4 2.3-.6.7-1.3 1.2-2.1 1.5-.9.4-1.8.6-2.8.6-.9 0-1.9-.2-2.7-.6-.8-.4-1.6-.9-2.2-1.6-.6-.7-1.1-1.5-1.4-2.3-.3-.9-.5-1.8-.5-2.8v-.1c0-.9.1-1.9.5-2.8.3-.9.7-1.6 1.4-2.3.6-.6 1.3-1.2 2.1-1.5 1.8-.8 3.8-.8 5.6 0 .8.4 1.5.9 2.1 1.6.6.7 1.1 1.5 1.4 2.3.4.9.5 1.9.5 2.9z"/>
  </g>
</svg>